<?xml version="1.0" standalone="no"?>
<!DOCTYPE svg PUBLIC "-//W3C//DTD SVG 20010904//EN"
 "http://www.w3.org/TR/2001/REC-SVG-20010904/DTD/svg10.dtd">
<svg version="1.0" xmlns="http://www.w3.org/2000/svg"
 width="300.000000pt" height="65.000000pt" viewBox="0 0 300.000000 65.000000"
 preserveAspectRatio="xMidYMid meet">
<metadata>
Created by potrace 1.10, written by Peter Selinger 2001-2011
</metadata>
<g transform="translate(0.000000,65.000000) scale(0.100000,-0.100000)"
fill="#004499" stroke="none">
<path d="M1040 519 c-14 -24 2 -49 31 -49 28 0 43 35 23 54 -21 22 -41 20 -54
-5z"/>
<path d="M1535 532 c-23 -3 -49 -27 -116 -105 -49 -57 -82 -105 -77 -108 7 -5
5 -15 -5 -29 -22 -31 -30 -8 -12 36 9 23 15 68 15 120 0 83 0 84 -25 84 l-25
0 0 -192 0 -193 25 0 c24 0 25 3 25 59 0 50 4 63 29 91 l29 33 61 -88 c51 -75
65 -88 93 -93 18 -2 34 -4 35 -3 1 1 -33 51 -77 111 l-79 109 57 66 c30 36 65
75 76 88 11 12 15 21 10 20 -5 0 -22 -3 -39 -6z m-125 -184 c0 -6 -3 -8 -7 -5
-3 4 -13 1 -22 -6 -14 -11 -14 -10 -2 6 15 20 31 22 31 5z"/>
<path d="M190 336 l0 -193 25 5 c24 4 25 7 25 81 0 76 0 76 27 76 22 0 35 -13
77 -77 41 -62 57 -77 81 -81 17 -3 31 -4 32 -3 1 1 -23 38 -54 81 -39 56 -52
80 -42 84 8 2 29 19 46 37 27 26 33 40 33 74 0 34 -6 48 -34 76 -34 34 -35 34
-125 34 l-91 0 0 -194z m32 127 c-5 -76 -10 -83 -11 -15 0 34 2 62 7 62 4 0 6
-21 4 -47z m142 6 c32 -25 35 -70 6 -99 -15 -15 -33 -20 -75 -20 l-55 0 0 70
0 70 49 0 c34 0 56 -6 75 -21z m56 -34 c0 -5 -5 -3 -10 5 -5 8 -10 20 -10 25
0 6 5 3 10 -5 5 -8 10 -19 10 -25z m-17 -70 c-3 -9 -8 -14 -10 -11 -3 3 -2 9
2 15 9 16 15 13 8 -4z m-183 -95 l-7 -65 -1 85 c0 52 2 77 7 65 5 -11 5 -49 1
-85z m120 46 c-6 -6 -5 -17 1 -30 10 -20 9 -20 -5 -3 -8 10 -23 25 -33 33 -16
13 -15 14 14 12 21 -1 29 -6 23 -12z"/>
<path d="M2391 451 l4 -79 -30 25 c-61 52 -165 6 -185 -80 -19 -85 41 -177
114 -177 38 0 86 18 86 32 0 4 5 8 11 8 6 0 9 -6 6 -14 -4 -9 3 -16 19 -19
l24 -4 0 193 0 194 -26 0 -26 0 3 -79z m26 -48 c-3 -10 -5 -4 -5 12 0 17 2 24
5 18 2 -7 2 -21 0 -30z m-128 -7 c-2 -2 -15 -9 -29 -15 -24 -11 -24 -11 -6 3
16 13 49 24 35 12z m79 -50 c16 -16 23 -34 24 -63 0 -51 -14 -77 -52 -93 -85
-35 -154 81 -91 154 35 40 78 41 119 2z m54 -80 c-3 -71 -6 -83 -17 -73 -8 7
-10 16 -4 21 13 14 11 123 -1 131 -8 5 -7 12 2 22 19 23 24 -1 20 -101z m-177
-85 c-6 -5 -25 10 -25 20 0 5 6 4 14 -3 8 -7 12 -15 11 -17z"/>
<path d="M2790 341 l0 -189 25 -4 25 -5 0 193 0 194 -25 0 -25 0 0 -189z"/>
<path d="M545 411 c-11 -5 -29 -18 -40 -30 -16 -19 -17 -24 -5 -31 19 -12 40
-13 40 -1 0 5 13 14 28 20 34 14 76 2 91 -28 18 -34 13 -40 -23 -29 -45 14
-103 2 -132 -27 -33 -33 -33 -87 1 -120 32 -33 105 -35 135 -5 25 25 30 25 30
2 0 -11 7 -18 20 -18 19 0 20 7 20 103 0 98 -1 104 -28 134 -21 24 -38 32 -72
35 -25 2 -54 0 -65 -5z m145 -127 c0 -8 -5 -12 -10 -9 -6 4 -8 11 -5 16 9 14
15 11 15 -7z m-34 -18 c19 -14 19 -15 -2 -43 -41 -55 -124 -54 -124 1 0 48 81
74 126 42z m30 -73 c-10 -10 -19 5 -10 18 6 11 8 11 12 0 2 -7 1 -15 -2 -18z"/>
<path d="M1658 404 c-15 -8 -32 -23 -38 -33 -8 -15 -5 -20 12 -25 14 -3 29 1
40 11 38 34 108 11 121 -38 4 -16 2 -19 -11 -13 -59 25 -127 11 -162 -34 -28
-35 -25 -69 9 -103 36 -36 95 -40 134 -9 30 23 38 25 31 6 -3 -9 4 -15 20 -18
l26 -5 0 93 c0 51 -4 104 -10 118 -21 56 -113 83 -172 50z m162 -119 c0 -8 -4
-15 -10 -15 -5 0 -7 7 -4 15 4 8 8 15 10 15 2 0 4 -7 4 -15z m-33 -19 c3 -3 2
-17 -1 -31 -9 -36 -66 -63 -101 -47 -39 18 -43 41 -10 70 23 19 36 23 68 19
21 -3 41 -8 44 -11z"/>
<path d="M1984 409 c-12 -6 -31 -27 -42 -47 -18 -31 -22 -34 -22 -14 0 12 5
22 10 22 6 0 10 9 10 20 0 14 -7 20 -22 20 -23 0 -23 -2 -23 -130 l0 -130 25
0 c25 0 25 1 25 91 0 88 1 92 29 116 21 18 36 23 55 18 43 -10 51 -31 51 -134
l0 -96 26 0 26 0 -4 112 c-3 98 -6 115 -24 134 -24 24 -89 34 -120 18z"/>
<path d="M2553 400 c-87 -52 -82 -202 7 -247 54 -28 146 -7 170 37 9 17 7 22
-11 28 -16 6 -27 3 -45 -15 -13 -13 -33 -23 -44 -23 -43 0 -89 38 -90 73 0 15
12 17 105 17 99 0 105 1 105 20 0 98 -113 161 -197 110z m126 -58 l24 -27 -78
-3 c-42 -2 -80 0 -83 2 -7 8 29 47 53 56 28 12 56 2 84 -28z m-145 -41 c3 -5
-1 -14 -9 -21 -13 -10 -15 -9 -15 9 0 21 14 28 24 12z"/>
<path d="M794 281 c46 -117 54 -129 79 -133 15 -3 27 -4 27 -2 0 1 24 61 54
133 l54 131 -27 0 c-25 0 -29 -7 -61 -91 -19 -51 -34 -103 -35 -117 0 -14 -7
-27 -15 -30 -11 -3 -12 -2 -4 8 9 9 5 28 -13 78 -14 37 -32 86 -40 110 -13 36
-19 42 -43 42 l-28 0 52 -129z"/>
<path d="M1041 280 l-1 -130 27 0 28 0 0 130 0 130 -26 0 -27 0 -1 -130z m39
46 c0 -3 -4 -8 -10 -11 -5 -3 -10 -1 -10 4 0 6 5 11 10 11 6 0 10 -2 10 -4z"/>
</g>
</svg>
